<svg width="11" height="23" viewBox="0 0 11 23" fill="none" xmlns="http://www.w3.org/2000/svg">
<path d="M9.46174 7.1818V10.0653H0.110884V7.1818H9.46174ZM2.4486 23V5.68855C2.4486 4.62439 2.66829 3.73874 3.10769 3.03159C3.55395 2.32444 4.15125 1.79579 4.89959 1.44565C5.64793 1.09551 6.47866 0.920438 7.39178 0.920438C8.03714 0.920438 8.61041 0.97193 9.11159 1.07491C9.61278 1.1779 9.98352 1.27058 10.2238 1.35297L9.48233 4.23649C9.32443 4.18843 9.12533 4.14037 8.88503 4.09231C8.64474 4.03739 8.37698 4.00993 8.08176 4.00993C7.38835 4.00993 6.89746 4.17813 6.60911 4.51454C6.32762 4.84409 6.18688 5.31781 6.18688 5.93571V23H2.4486Z" fill="#159C74" fill-opacity="0.81"/>
</svg>
