<svg width="31" height="31" viewBox="0 0 31 31" fill="none" xmlns="http://www.w3.org/2000/svg">
<path d="M26.8131 17C26.8751 16.52 26.9216 16.04 26.9216 15.53C26.9216 15.02 26.8751 14.54 26.8131 14.06L30.0844 11.585C30.3789 11.36 30.4565 10.955 30.2704 10.625L27.1697 5.435C26.9836 5.105 26.565 4.985 26.224 5.105L22.3635 6.605C21.5573 6.005 20.6891 5.51 19.7434 5.135L19.1543 1.16C19.1078 0.799999 18.7822 0.529999 18.3946 0.529999H12.1931C11.8055 0.529999 11.4799 0.799999 11.4334 1.16L10.8443 5.135C9.89856 5.51 9.03035 6.02 8.22416 6.605L4.36373 5.105C4.00715 4.97 3.60405 5.105 3.41801 5.435L0.317267 10.625C0.115719 10.955 0.208742 11.36 0.503312 11.585L3.77459 14.06C3.71258 14.54 3.66607 15.035 3.66607 15.53C3.66607 16.025 3.71258 16.52 3.77459 17L0.503312 19.475C0.208742 19.7 0.131223 20.105 0.317267 20.435L3.41801 25.625C3.60405 25.955 4.02265 26.075 4.36373 25.955L8.22416 24.455C9.03035 25.055 9.89856 25.55 10.8443 25.925L11.4334 29.9C11.4799 30.26 11.8055 30.53 12.1931 30.53H18.3946C18.7822 30.53 19.1078 30.26 19.1543 29.9L19.7434 25.925C20.6891 25.55 21.5573 25.04 22.3635 24.455L26.224 25.955C26.5805 26.09 26.9836 25.955 27.1697 25.625L30.2704 20.435C30.4565 20.105 30.3789 19.7 30.0844 19.475L26.8131 17ZM15.2938 20.78C12.3016 20.78 9.86755 18.425 9.86755 15.53C9.86755 12.635 12.3016 10.28 15.2938 10.28C18.2861 10.28 20.7201 12.635 20.7201 15.53C20.7201 18.425 18.2861 20.78 15.2938 20.78Z" fill="#159C74" fill-opacity="0.81"/>
</svg>
