<svg width="19" height="22" viewBox="0 0 19 22" fill="none" xmlns="http://www.w3.org/2000/svg">
<path d="M14.6506 7.13919C14.4848 6.60226 14.2562 6.12167 13.9645 5.69743C13.6795 5.26656 13.3348 4.89866 12.9304 4.59373C12.5327 4.28881 12.0753 4.06012 11.5582 3.90765C11.0412 3.74856 10.4777 3.66902 9.8679 3.66902C8.77415 3.66902 7.79972 3.94411 6.9446 4.4943C6.08949 5.04449 5.41667 5.8532 4.92614 6.92044C4.44224 7.98104 4.20028 9.27366 4.20028 10.7983C4.20028 12.3362 4.44224 13.6387 4.92614 14.706C5.41004 15.7732 6.08286 16.5852 6.9446 17.142C7.80635 17.6922 8.80729 17.9673 9.94744 17.9673C10.9815 17.9673 11.8764 17.7685 12.6321 17.3707C13.3944 16.973 13.9811 16.4095 14.392 15.6804C14.803 14.9446 15.0085 14.0828 15.0085 13.0952L15.8438 13.2244H10.3153V10.3409H18.5781V12.7869C18.5781 14.5303 18.2069 16.0383 17.4645 17.3111C16.7221 18.5838 15.7012 19.5649 14.402 20.2542C13.1027 20.937 11.6113 21.2784 9.92756 21.2784C8.05161 21.2784 6.40436 20.8575 4.9858 20.0156C3.57386 19.1671 2.47017 17.964 1.67472 16.4062C0.88589 14.8418 0.491477 12.9858 0.491477 10.8381C0.491477 9.19411 0.723485 7.72584 1.1875 6.43322C1.65814 5.14061 2.31439 4.04355 3.15625 3.14203C3.99811 2.23389 4.9858 1.54449 6.11932 1.07385C7.25284 0.596575 8.4858 0.357939 9.81818 0.357939C10.9451 0.357939 11.9957 0.523658 12.9702 0.855098C13.9446 1.17991 14.8097 1.64392 15.5653 2.24714C16.3277 2.85036 16.9541 3.56627 17.4446 4.39487C17.9351 5.22347 18.2566 6.13824 18.4091 7.13919H14.6506Z" fill="#159C74" fill-opacity="0.81"/>
</svg>
