<svg width="23" height="25" viewBox="0 0 23 25" fill="none" xmlns="http://www.w3.org/2000/svg">
<path d="M9.16997 22.686C9.16997 23.9651 10.2815 25 11.6553 25C13.0291 25 14.1407 23.9651 14.1407 22.686H9.16997ZM11.6553 5.23256C15.1023 5.23256 17.8999 7.83721 17.8999 11.0465V19.186H5.41072V11.0465C5.41072 7.83721 8.2083 5.23256 11.6553 5.23256ZM11.6553 0C10.6187 0 9.78194 0.77907 9.78194 1.74419V3.10465C5.86033 3.89535 2.91288 7.15116 2.91288 11.0465V18.0233L0.415039 20.3488V21.5116H22.8956V20.3488L20.3978 18.0233V11.0465C20.3978 7.15116 17.4503 3.89535 13.5287 3.10465V1.74419C13.5287 0.77907 12.6919 0 11.6553 0ZM10.4064 7.55814H12.9042V12.2093H10.4064V7.55814ZM10.4064 14.5349H12.9042V16.8605H10.4064V14.5349Z" fill="#159C74" fill-opacity="0.81"/>
</svg>
